<svg xmlns="http://www.w3.org/2000/svg" version="1.1" xmlns:xlink="http://www.w3.org/1999/xlink" xmlns:svgjs="http://svgjs.dev/svgjs" viewBox="0 0 9.667437265443297 1.7422071757089606"><g transform="matrix(1,0,0,1,0.3165459093845131,0.34235358785448033)"><g><path d=" M 0.9067500000000001 0.6067499999999999 Q 0.9615 0.6779999999999999 0.9615 0.7694999999999999 Q 0.9615 0.9044999999999999 0.8685 0.9809999999999999 Q 0.7755 1.0574999999999999 0.6075 1.0574999999999999 L 0.084 1.0574999999999999 L 0.084 -2.220446049250313e-16 L 0.591 -2.220446049250313e-16 Q 0.753 -2.220446049250313e-16 0.8452500000000001 0.07199999999999984 Q 0.9375 0.1439999999999999 0.9375 0.27449999999999986 Q 0.9375 0.3674999999999998 0.88875 0.42974999999999985 Q 0.84 0.4919999999999999 0.759 0.5144999999999998 Q 0.852 0.5354999999999999 0.9067500000000001 0.6067499999999999 M 0.378 0.4199999999999998 L 0.5265 0.4199999999999998 Q 0.6375000000000001 0.4199999999999998 0.6375000000000001 0.3284999999999999 Q 0.6375000000000001 0.23399999999999987 0.5265 0.23399999999999987 L 0.378 0.23399999999999987 L 0.378 0.4199999999999998 M 0.66 0.7274999999999998 Q 0.66 0.6794999999999999 0.63075 0.6539999999999999 Q 0.6015 0.6284999999999998 0.5475 0.6284999999999998 L 0.378 0.6284999999999998 L 0.378 0.8204999999999999 L 0.549 0.8204999999999999 Q 0.66 0.8204999999999999 0.66 0.7274999999999998 M 1.64103076171875 1.0574999999999999 L 1.43103076171875 0.6674999999999999 L 1.3995307617187502 0.6674999999999999 L 1.3995307617187502 1.0574999999999999 L 1.1055307617187502 1.0574999999999999 L 1.1055307617187502 -2.220446049250313e-16 L 1.56903076171875 -2.220446049250313e-16 Q 1.6965307617187502 -2.220446049250313e-16 1.7850307617187502 0.0442499999999999 Q 1.87353076171875 0.08849999999999991 1.9185307617187501 0.16574999999999984 Q 1.9635307617187503 0.24299999999999988 1.9635307617187503 0.33899999999999986 Q 1.9635307617187503 0.44699999999999984 1.9042807617187503 0.5287499999999998 Q 1.8450307617187502 0.6104999999999998 1.7310307617187501 0.6449999999999998 L 1.96953076171875 1.0574999999999999 L 1.64103076171875 1.0574999999999999 M 1.3995307617187502 0.4664999999999999 L 1.54503076171875 0.4664999999999999 Q 1.60503076171875 0.4664999999999999 1.6350307617187503 0.43799999999999983 Q 1.66503076171875 0.40949999999999986 1.66503076171875 0.3554999999999998 Q 1.66503076171875 0.3044999999999999 1.6342807617187503 0.2752499999999999 Q 1.60353076171875 0.24599999999999989 1.54503076171875 0.24599999999999989 L 1.3995307617187502 0.24599999999999989 L 1.3995307617187502 0.4664999999999999 M 2.4060468750000004 0.23549999999999982 L 2.4060468750000004 0.4079999999999999 L 2.7435468750000003 0.4079999999999999 L 2.7435468750000003 0.6315 L 2.4060468750000004 0.6315 L 2.4060468750000004 0.8219999999999998 L 2.788546875 0.8219999999999998 L 2.788546875 1.0574999999999999 L 2.1120468750000003 1.0574999999999999 L 2.1120468750000003 -2.220446049250313e-16 L 2.788546875 -2.220446049250313e-16 L 2.788546875 0.23549999999999982 L 2.4060468750000004 0.23549999999999982 M 3.9285073242187503 1.0574999999999999 L 3.6345073242187502 1.0574999999999999 L 3.2430073242187505 0.4664999999999999 L 3.2430073242187505 1.0574999999999999 L 2.9490073242187504 1.0574999999999999 L 2.9490073242187504 -2.220446049250313e-16 L 3.2430073242187505 -2.220446049250313e-16 L 3.6345073242187502 0.5984999999999998 L 3.6345073242187502 -2.220446049250313e-16 L 3.9285073242187503 -2.220446049250313e-16 L 3.9285073242187503 1.0574999999999999 M 4.821779296875 0.06674999999999986 Q 4.947029296875001 0.13349999999999984 5.014529296875001 0.25349999999999984 Q 5.0820292968750005 0.37349999999999983 5.0820292968750005 0.5279999999999999 Q 5.0820292968750005 0.6809999999999998 5.013779296875001 0.8009999999999999 Q 4.945529296875001 0.9209999999999998 4.820279296875 0.9892499999999999 Q 4.695029296875001 1.0574999999999999 4.530029296875001 1.0574999999999999 L 4.111529296875 1.0574999999999999 L 4.111529296875 -2.220446049250313e-16 L 4.530029296875001 -2.220446049250313e-16 Q 4.696529296875001 -2.220446049250313e-16 4.821779296875 0.06674999999999986 M 4.710029296875001 0.7274999999999998 Q 4.783529296875001 0.6569999999999998 4.783529296875001 0.5279999999999999 Q 4.783529296875001 0.39749999999999985 4.710029296875001 0.3262499999999998 Q 4.6365292968750005 0.2549999999999999 4.507529296875001 0.2549999999999999 L 4.405529296875001 0.2549999999999999 L 4.405529296875001 0.7979999999999998 L 4.507529296875001 0.7979999999999998 Q 4.6365292968750005 0.7979999999999998 4.710029296875001 0.7274999999999998 M 5.898007324218751 0.8849999999999999 L 5.523007324218751 0.8849999999999999 L 5.466007324218751 1.0574999999999999 L 5.157007324218751 1.0574999999999999 L 5.542507324218751 -2.220446049250313e-16 L 5.881507324218751 -2.220446049250313e-16 L 6.265507324218751 1.0574999999999999 L 5.955007324218752 1.0574999999999999 L 5.898007324218751 0.8849999999999999 M 5.824507324218751 0.6599999999999999 L 5.710507324218751 0.31799999999999984 L 5.598007324218751 0.6599999999999999 L 5.824507324218751 0.6599999999999999 M 7.356014648437502 1.0574999999999999 L 7.0620146484375015 1.0574999999999999 L 6.670514648437502 0.4664999999999999 L 6.670514648437502 1.0574999999999999 L 6.376514648437501 1.0574999999999999 L 6.376514648437501 -2.220446049250313e-16 L 6.670514648437502 -2.220446049250313e-16 L 7.0620146484375015 0.5984999999999998 L 7.0620146484375015 -2.220446049250313e-16 L 7.356014648437502 -2.220446049250313e-16 L 7.356014648437502 1.0574999999999999" fill="#ffffff" fill-rule="nonzero"></path></g><g></g><g clip-path="url(&quot;#SvgjsClipPath1001&quot;)"><g clip-path="url(&quot;#a1d98b47c-4ad4-4251-91e8-fbe9df13101dba8ab7cb-3aba-485e-9480-f525d155b36c&quot;)"><path d=" M 9.02571721582628 0.7481429788374919 L 7.848681349515065 0.7481429788374919 L 7.848681349515065 0.034606435039292435 C 7.848690455320776 0.006009654386400373 7.87187045152345 -0.017170341816270467 7.9004672321763385 -0.01717944762197666 L 8.97393133316501 -0.01717944762197666 C 9.002528113817899 -0.017170341816268343 9.02570811002057 0.006009654386404405 9.02571721582628 0.034606435039292546 Z" fill="#5a5758" transform="matrix(1,0,0,1,0,0)" fill-rule="nonzero"></path></g><g clip-path="url(&quot;#a1d98b47c-4ad4-4251-91e8-fbe9df13101dba8ab7cb-3aba-485e-9480-f525d155b36c&quot;)"><path d=" M 9.02571721582628 0.7481429788374919 L 7.848681349515065 0.7481429788374919 L 7.848681349515065 0.034606435039292435 C 7.848690455320776 0.006009654386400373 7.87187045152345 -0.017170341816270467 7.9004672321763385 -0.01717944762197666 L 8.97393133316501 -0.01717944762197666 C 9.002528113817899 -0.017170341816268343 9.02570811002057 0.006009654386404405 9.02571721582628 0.034606435039292546 Z" fill="none" transform="matrix(1,0,0,1,0,0)" fill-rule="nonzero" stroke-dasharray="none" stroke-miterlimit="10" stroke-linejoin="miter" stroke-linecap="butt" stroke-width="0.017256461695981985" stroke="#231f20"></path></g><g clip-path="url(&quot;#a1d98b47c-4ad4-4251-91e8-fbe9df13101dba8ab7cb-3aba-485e-9480-f525d155b36c&quot;)"><path d=" M 7.848664851941742 0.7481429788374919 L 9.025700718252956 0.7481429788374919 L 9.025700718252956 0.8152716046892612 C 9.025700718679138 0.8438721571679373 9.002515389613702 0.8670574869243488 8.973914836363356 0.8670574873505303 L 7.9004507346030115 0.8670574873505303 C 7.886716264580347 0.8670574873505303 7.873544322692526 0.8616014903778046 7.863832585803497 0.8518897534887755 C 7.854120848914468 0.8421780165997461 7.848664851941742 0.8290060747119256 7.848664851941742 0.8152716046892612 Z" fill="#ffffff" transform="matrix(1,0,0,1,0,0)" fill-rule="nonzero"></path></g><g clip-path="url(&quot;#a1d98b47c-4ad4-4251-91e8-fbe9df13101dba8ab7cb-3aba-485e-9480-f525d155b36c&quot;)"><path d=" M 7.848664851941742 0.7481429788374919 L 9.025700718252956 0.7481429788374919 L 9.025700718252956 0.8152716046892612 C 9.025700718679138 0.8438721571679373 9.002515389613702 0.8670574869243488 8.973914836363356 0.8670574873505303 L 7.9004507346030115 0.8670574873505303 C 7.886716264580347 0.8670574873505303 7.873544322692526 0.8616014903778046 7.863832585803497 0.8518897534887755 C 7.854120848914468 0.8421780165997461 7.848664851941742 0.8290060747119256 7.848664851941742 0.8152716046892612 Z" fill="none" transform="matrix(1,0,0,1,0,0)" fill-rule="nonzero" stroke-dasharray="none" stroke-miterlimit="10" stroke-linejoin="miter" stroke-linecap="butt" stroke-width="0.017256461695981985" stroke="#231f20"></path></g><g clip-path="url(&quot;#SvgjsClipPath1000ba8ab7cb-3aba-485e-9480-f525d155b36c&quot;)"><path d=" M 8.374522213436794 0.8075954194200324 L 8.49987077554585 0.8075954194200324" fill="none" transform="matrix(1,0,0,1,0,0)" fill-rule="nonzero" stroke-dasharray="none" stroke-miterlimit="10" stroke-linejoin="miter" stroke-linecap="butt" stroke-width="0.017256461695981985" stroke="#231f20"></path></g><g clip-path="url(&quot;#SvgjsClipPath1000ba8ab7cb-3aba-485e-9480-f525d155b36c&quot;)"><path d=" M 7.90922744361091 0.6868544939421065 L 7.946083022414757 0.6868544939421065 L 7.946083022414757 0.083967174422063 L 7.90922744361091 0.083967174422063 Z" fill="#d3d2d2" transform="matrix(1,0,0,1,0,0)" fill-rule="nonzero" stroke-dasharray="none" stroke-miterlimit="10" stroke-linejoin="miter" stroke-linecap="butt" stroke-width="0.017256461695981985" stroke="#231f20"></path></g><g clip-path="url(&quot;#SvgjsClipPath1000ba8ab7cb-3aba-485e-9480-f525d155b36c&quot;)"><path d=" M 7.90922744361091 0.08220193407648937 L 8.965154624157112 0.08220193407648937 L 8.965154624157112 0.04534635527264254 L 7.90922744361091 0.04534635527264254 Z" fill="#d3d2d2" transform="matrix(1,0,0,1,0,0)" fill-rule="nonzero" stroke-dasharray="none" stroke-miterlimit="10" stroke-linejoin="miter" stroke-linecap="butt" stroke-width="0.017239964122658862" stroke="#231f20"></path></g><g clip-path="url(&quot;#SvgjsClipPath1000ba8ab7cb-3aba-485e-9480-f525d155b36c&quot;)"><path d=" M 7.94607503872414 0.09034512849840402 L 7.94607503872414 0.04682453007201734" fill="none" transform="matrix(1,0,0,1,0,0)" fill-rule="nonzero" stroke-dasharray="none" stroke-miterlimit="10" stroke-linejoin="miter" stroke-linecap="butt" stroke-width="0.017256461695981985" stroke="#231f20"></path></g><g clip-path="url(&quot;#SvgjsClipPath1000ba8ab7cb-3aba-485e-9480-f525d155b36c&quot;)"><path d=" M 7.938197182366307 0.07433259160136171 L 7.917096786086038 0.07433259160136171 L 7.917096786086038 0.05323219532109309 L 7.938197182366307 0.05323219532109309 Z" fill="#67c5f0" transform="matrix(1,0,0,1,0,0)" fill-rule="nonzero"></path></g><g clip-path="url(&quot;#SvgjsClipPath1000ba8ab7cb-3aba-485e-9480-f525d155b36c&quot;)"><path d=" M 8.965154624157112 0.6868544939421065 L 7.946083022414757 0.6868544939421065 L 7.946083022414757 0.083967174422063 L 8.965154624157112 0.083967174422063 Z" fill="#ffffff" transform="matrix(1,0,0,1,0,0)" fill-rule="nonzero" stroke-dasharray="none" stroke-miterlimit="10" stroke-linejoin="miter" stroke-linecap="butt" stroke-width="0.017256461695981985" stroke="#231f20"></path></g><g clip-path="url(&quot;#SvgjsClipPath1000ba8ab7cb-3aba-485e-9480-f525d155b36c&quot;)"><path d=" M 7.94607503872414 0.17327038812020837 L 8.965146640466493 0.17327038812020837" fill="none" transform="matrix(1,0,0,1,0,0)" fill-rule="nonzero" stroke-dasharray="none" stroke-miterlimit="10" stroke-linejoin="miter" stroke-linecap="butt" stroke-width="0.017256461695981985" stroke="#231f20"></path></g><g clip-path="url(&quot;#SvgjsClipPath1000ba8ab7cb-3aba-485e-9480-f525d155b36c&quot;)"><path d=" M 8.129990445918782 0.08571754761231705 L 8.129990445918782 0.17327016923810712" fill="none" transform="matrix(1,0,0,1,0,0)" fill-rule="nonzero" stroke-dasharray="none" stroke-miterlimit="10" stroke-linejoin="miter" stroke-linecap="butt" stroke-width="0.017256461695981985" stroke="#231f20"></path></g><g clip-path="url(&quot;#SvgjsClipPath1000ba8ab7cb-3aba-485e-9480-f525d155b36c&quot;)"><path d=" M 8.163843551010585 0.1294939678662627 L 8.931607618321875 0.1294939678662627" fill="none" transform="matrix(1,0,0,1,0,0)" fill-rule="nonzero" stroke-dasharray="none" stroke-miterlimit="10" stroke-linejoin="miter" stroke-linecap="butt" stroke-width="0.017256461695981985" stroke="#231f20"></path></g><g clip-path="url(&quot;#SvgjsClipPath1000ba8ab7cb-3aba-485e-9480-f525d155b36c&quot;)"><path d=" M 7.99857830072892 0.13992694313408105 L 7.9774779044486515 0.13992694313408105 L 7.9774779044486515 0.11882654685381241 L 7.99857830072892 0.11882654685381241 Z M 8.047559595925259 0.13992694313408105 L 8.026459199644991 0.13992694313408105 L 8.026459199644991 0.11882654685381241 L 8.047559595925259 0.11882654685381241 Z M 8.096524393548275 0.13992694313408105 L 8.075423997268006 0.13992694313408105 L 8.075423997268006 0.11882654685381241 L 8.096524393548275 0.11882654685381241 Z" fill="#231f20" transform="matrix(1,0,0,1,0,0)" fill-rule="nonzero"></path></g><g clip-path="url(&quot;#SvgjsClipPath1000ba8ab7cb-3aba-485e-9480-f525d155b36c&quot;)"><path d=" M 8.90822149861903 0.42615984029018755 L 8.003032645526162 0.42615984029018755 L 8.003032645526162 0.28086571203348265 L 8.90822149861903 0.28086571203348265 Z" fill="#f03f52" transform="matrix(1,0,0,1,0,0)" fill-rule="nonzero"></path></g><g clip-path="url(&quot;#SvgjsClipPath1000ba8ab7cb-3aba-485e-9480-f525d155b36c&quot;)"><path d=" M 8.207446746311575 0.47350635122421936 L 8.90821416835768 0.47350635122421936" fill="none" transform="matrix(1,0,0,1,0,0)" fill-rule="nonzero" stroke-dasharray="none" stroke-miterlimit="10" stroke-linejoin="miter" stroke-linecap="butt" stroke-width="0.017107983536073915" stroke="#231f20"></path></g><g clip-path="url(&quot;#SvgjsClipPath1000ba8ab7cb-3aba-485e-9480-f525d155b36c&quot;)"><path d=" M 8.207446746311575 0.5201038635691487 L 8.90821416835768 0.5201038635691487" fill="none" transform="matrix(1,0,0,1,0,0)" fill-rule="nonzero" stroke-dasharray="none" stroke-miterlimit="10" stroke-linejoin="miter" stroke-linecap="butt" stroke-width="0.017107983536073915" stroke="#231f20"></path></g><g clip-path="url(&quot;#SvgjsClipPath1000ba8ab7cb-3aba-485e-9480-f525d155b36c&quot;)"><path d=" M 8.207446746311575 0.5667137491250032 L 8.90821416835768 0.5667137491250032" fill="none" transform="matrix(1,0,0,1,0,0)" fill-rule="nonzero" stroke-dasharray="none" stroke-miterlimit="10" stroke-linejoin="miter" stroke-linecap="butt" stroke-width="0.017107983536073915" stroke="#231f20"></path></g><g clip-path="url(&quot;#SvgjsClipPath1000ba8ab7cb-3aba-485e-9480-f525d155b36c&quot;)"><path d=" M 8.207446746311575 0.6133236346808577 L 8.90821416835768 0.6133236346808577" fill="none" transform="matrix(1,0,0,1,0,0)" fill-rule="nonzero" stroke-dasharray="none" stroke-miterlimit="10" stroke-linejoin="miter" stroke-linecap="butt" stroke-width="0.017107983536073915" stroke="#231f20"></path></g><g clip-path="url(&quot;#SvgjsClipPath1000ba8ab7cb-3aba-485e-9480-f525d155b36c&quot;)"><path d=" M 8.172759679874405 0.6237677735545013 L 8.003016147952838 0.6237677735545013 L 8.003016147952838 0.46474766429296177 L 8.172759679874405 0.46474766429296177 Z" fill="#67c5f0" transform="matrix(1,0,0,1,0,0)" fill-rule="nonzero"></path></g><g clip-path="url(&quot;#SvgjsClipPath1000ba8ab7cb-3aba-485e-9480-f525d155b36c&quot;)"><path d=" M 8.31915914554376 0.24471952888252996 L 8.298058749263491 0.24471952888252996 L 8.298058749263491 0.22361913260226132 L 8.31915914554376 0.22361913260226132 Z M 8.36815693831342 0.24471952888252996 L 8.347056542033153 0.24471952888252996 L 8.347056542033153 0.22361913260226132 L 8.36815693831342 0.22361913260226132 Z M 8.417171228656407 0.24471952888252996 L 8.396070832376138 0.24471952888252996 L 8.396070832376138 0.22361913260226132 L 8.417171228656406 0.22361913260226132 Z M 8.466169021426069 0.24471952888252996 L 8.445068625145801 0.24471952888252996 L 8.445068625145801 0.22361913260226132 L 8.466169021426069 0.22361913260226132 Z M 8.51516681419573 0.24471952888252996 L 8.494066417915462 0.24471952888252996 L 8.494066417915462 0.22361913260226132 L 8.51516681419573 0.22361913260226132 Z M 8.564164606965392 0.24471952888252996 L 8.543064210685124 0.24471952888252996 L 8.543064210685124 0.22361913260226132 L 8.564164606965392 0.22361913260226132 Z M 8.613178897308378 0.24471952888252996 L 8.592078501028109 0.24471952888252996 L 8.592078501028109 0.22361913260226132 L 8.613178897308378 0.22361913260226132 Z" fill="#231f20" transform="matrix(1,0,0,1,0,0)" fill-rule="nonzero"></path></g><g clip-path="url(&quot;#SvgjsClipPath1000ba8ab7cb-3aba-485e-9480-f525d155b36c&quot;)"><path d=" M 8.233866691463236 1.0742175155689295 L 8.640498878731462 1.0742175155689295 L 8.640498878731462 1.0243453514131422 L 8.233866691463236 1.0243453514131422 Z" fill="#ffffff" transform="matrix(1,0,0,1,0,0)" fill-rule="nonzero"></path></g><g clip-path="url(&quot;#b1d98b47c-4ad4-4251-91e8-fbe9df13101dba8ab7cb-3aba-485e-9480-f525d155b36c&quot;)"><path d=" M 8.640498878731462 1.0742175155689295 L 8.233866691463236 1.0742175155689295 L 8.233866691463236 1.0243453514131422 L 8.640498878731462 1.0243453514131422 Z" fill="none" transform="matrix(1,0,0,1,0,0)" fill-rule="nonzero" stroke-dasharray="none" stroke-miterlimit="10" stroke-linejoin="miter" stroke-linecap="butt" stroke-width="0.017256461695981985" stroke="#231f20"></path></g><g clip-path="url(&quot;#SvgjsClipPath1000ba8ab7cb-3aba-485e-9480-f525d155b36c&quot;)"><path d=" M 8.535906003536347 0.8670610711273427 L 8.567053421970394 1.0243489351899546 L 8.307348622717862 1.0243489351899546 L 8.33849604115191 0.8670610711273427 Z" fill="#ffffff" transform="matrix(1,0,0,1,0,0)" fill-rule="nonzero"></path></g><g clip-path="url(&quot;#SvgjsClipPath1000ba8ab7cb-3aba-485e-9480-f525d155b36c&quot;)"><path d=" M 8.535906003536347 0.8670610711273427 L 8.567053421970394 1.0243489351899546 L 8.307348622717862 1.0243489351899546 L 8.33849604115191 0.8670610711273427 Z" fill="none" transform="matrix(1,0,0,1,0,0)" fill-rule="nonzero" stroke-dasharray="none" stroke-miterlimit="10" stroke-linejoin="miter" stroke-linecap="butt" stroke-width="0.017256461695981985" stroke="#231f20"></path></g><g clip-path="url(&quot;#c1d98b47c-4ad4-4251-91e8-fbe9df13101dba8ab7cb-3aba-485e-9480-f525d155b36c&quot;)"><path d=" M 7.840036621093751 1.074679447621977 L 9.034345446674271 1.074679447621977" fill="none" transform="matrix(1,0,0,1,0,0)" fill-rule="nonzero" stroke-dasharray="none" stroke-miterlimit="10" stroke-linejoin="miter" stroke-linecap="butt" stroke-width="0.017256461695981985" stroke="#231f20"></path></g></g></g><defs><clipPath id="SvgjsClipPath1001"><path d=" M 7.840036621093751 -0.025807678469967676 h 1.1943088255805194 v 1.1091153569399352 h -1.1943088255805194 Z"></path></clipPath><clipPath id="a1d98b47c-4ad4-4251-91e8-fbe9df13101dba8ab7cb-3aba-485e-9480-f525d155b36c"><path d=" M 7.840036621093751 1.083307678469968 L 9.034345446674271 1.083307678469968 L 9.034345446674271 -0.025807678469967676 L 7.840036621093751 -0.025807678469967676 Z"></path></clipPath><clipPath id="SvgjsClipPath1000ba8ab7cb-3aba-485e-9480-f525d155b36c"><path d=" M 7.840036621093751 -0.025807678469967784 L 9.034345446674271 -0.025807678469967784 L 9.034345446674271 1.0833076784699676 L 7.840036621093751 1.0833076784699676 Z"></path></clipPath><clipPath id="b1d98b47c-4ad4-4251-91e8-fbe9df13101dba8ab7cb-3aba-485e-9480-f525d155b36c"><path d=" M 7.840036621093751 1.083307678469968 L 9.034345446674271 1.083307678469968 L 9.034345446674271 -0.025807678469967676 L 7.840036621093751 -0.025807678469967676 Z"></path></clipPath><clipPath id="c1d98b47c-4ad4-4251-91e8-fbe9df13101dba8ab7cb-3aba-485e-9480-f525d155b36c"><path d=" M 7.840036621093751 1.083307678469968 L 9.034345446674271 1.083307678469968 L 9.034345446674271 -0.025807678469967676 L 7.840036621093751 -0.025807678469967676 Z"></path></clipPath></defs></svg>