<svg xmlns="http://www.w3.org/2000/svg" version="1.1" xmlns:xlink="http://www.w3.org/1999/xlink" xmlns:svgjs="http://svgjs.dev/svgjs" viewBox="0 0 14.909211861743877 1.9238126055290392"><g transform="matrix(1,0,0,1,0.39869595129714863,0.4249063027645196)"><rect width="14.909211861743877" height="14.909211861743877" x="-0.39869595129714774" y="-6.917605930871939" fill="#000000"></rect><g><path d=" M 0.9067500000000001 0.6232499999999999 Q 0.9615 0.6944999999999999 0.9615 0.7859999999999998 Q 0.9615 0.9209999999999998 0.8685 0.9974999999999998 Q 0.7755 1.0739999999999998 0.6075 1.0739999999999998 L 0.084 1.0739999999999998 L 0.084 0.016499999999999737 L 0.591 0.016499999999999737 Q 0.753 0.016499999999999737 0.8452500000000001 0.0884999999999998 Q 0.9375 0.16049999999999986 0.9375 0.2909999999999998 Q 0.9375 0.3839999999999998 0.88875 0.4462499999999998 Q 0.84 0.5084999999999998 0.759 0.5309999999999998 Q 0.852 0.5519999999999998 0.9067500000000001 0.6232499999999999 M 0.378 0.4364999999999998 L 0.5265 0.4364999999999998 Q 0.6375000000000001 0.4364999999999998 0.6375000000000001 0.34499999999999986 Q 0.6375000000000001 0.25049999999999983 0.5265 0.25049999999999983 L 0.378 0.25049999999999983 L 0.378 0.4364999999999998 M 0.66 0.7439999999999998 Q 0.66 0.6959999999999998 0.63075 0.6704999999999999 Q 0.6015 0.6449999999999998 0.5475 0.6449999999999998 L 0.378 0.6449999999999998 L 0.378 0.8369999999999999 L 0.549 0.8369999999999999 Q 0.66 0.8369999999999999 0.66 0.7439999999999998 M 1.64103076171875 1.0739999999999998 L 1.43103076171875 0.6839999999999998 L 1.3995307617187502 0.6839999999999998 L 1.3995307617187502 1.0739999999999998 L 1.1055307617187502 1.0739999999999998 L 1.1055307617187502 0.016499999999999737 L 1.56903076171875 0.016499999999999737 Q 1.6965307617187502 0.016499999999999737 1.7850307617187502 0.06074999999999986 Q 1.87353076171875 0.10499999999999987 1.9185307617187501 0.1822499999999998 Q 1.9635307617187503 0.25949999999999984 1.9635307617187503 0.3554999999999998 Q 1.9635307617187503 0.4634999999999998 1.9042807617187503 0.5452499999999998 Q 1.8450307617187502 0.6269999999999998 1.7310307617187501 0.6614999999999998 L 1.96953076171875 1.0739999999999998 L 1.64103076171875 1.0739999999999998 M 1.3995307617187502 0.4829999999999999 L 1.54503076171875 0.4829999999999999 Q 1.60503076171875 0.4829999999999999 1.6350307617187503 0.4544999999999998 Q 1.66503076171875 0.4259999999999998 1.66503076171875 0.3719999999999998 Q 1.66503076171875 0.32099999999999984 1.6342807617187503 0.29174999999999984 Q 1.60353076171875 0.26249999999999984 1.54503076171875 0.26249999999999984 L 1.3995307617187502 0.26249999999999984 L 1.3995307617187502 0.4829999999999999 M 2.4060468750000004 0.2519999999999998 L 2.4060468750000004 0.4244999999999999 L 2.7435468750000003 0.4244999999999999 L 2.7435468750000003 0.6479999999999999 L 2.4060468750000004 0.6479999999999999 L 2.4060468750000004 0.8384999999999998 L 2.788546875 0.8384999999999998 L 2.788546875 1.0739999999999998 L 2.1120468750000003 1.0739999999999998 L 2.1120468750000003 0.016499999999999737 L 2.788546875 0.016499999999999737 L 2.788546875 0.2519999999999998 L 2.4060468750000004 0.2519999999999998 M 3.9285073242187503 1.0739999999999998 L 3.6345073242187502 1.0739999999999998 L 3.2430073242187505 0.4829999999999999 L 3.2430073242187505 1.0739999999999998 L 2.9490073242187504 1.0739999999999998 L 2.9490073242187504 0.016499999999999737 L 3.2430073242187505 0.016499999999999737 L 3.6345073242187502 0.6149999999999998 L 3.6345073242187502 0.016499999999999737 L 3.9285073242187503 0.016499999999999737 L 3.9285073242187503 1.0739999999999998 M 4.821779296875 0.08324999999999982 Q 4.947029296875001 0.1499999999999998 5.014529296875001 0.2699999999999998 Q 5.0820292968750005 0.3899999999999998 5.0820292968750005 0.5444999999999999 Q 5.0820292968750005 0.6974999999999998 5.013779296875001 0.8174999999999999 Q 4.945529296875001 0.9374999999999998 4.820279296875 1.00575 Q 4.695029296875001 1.0739999999999998 4.530029296875001 1.0739999999999998 L 4.111529296875 1.0739999999999998 L 4.111529296875 0.016499999999999737 L 4.530029296875001 0.016499999999999737 Q 4.696529296875001 0.016499999999999737 4.821779296875 0.08324999999999982 M 4.710029296875001 0.7439999999999998 Q 4.783529296875001 0.6734999999999998 4.783529296875001 0.5444999999999999 Q 4.783529296875001 0.4139999999999998 4.710029296875001 0.3427499999999998 Q 4.6365292968750005 0.27149999999999985 4.507529296875001 0.27149999999999985 L 4.405529296875001 0.27149999999999985 L 4.405529296875001 0.8144999999999998 L 4.507529296875001 0.8144999999999998 Q 4.6365292968750005 0.8144999999999998 4.710029296875001 0.7439999999999998 M 5.898007324218751 0.9014999999999999 L 5.523007324218751 0.9014999999999999 L 5.466007324218751 1.0739999999999998 L 5.157007324218751 1.0739999999999998 L 5.542507324218751 0.016499999999999737 L 5.881507324218751 0.016499999999999737 L 6.265507324218751 1.0739999999999998 L 5.955007324218752 1.0739999999999998 L 5.898007324218751 0.9014999999999999 M 5.824507324218751 0.6764999999999999 L 5.710507324218751 0.3344999999999998 L 5.598007324218751 0.6764999999999999 L 5.824507324218751 0.6764999999999999 M 7.356014648437502 1.0739999999999998 L 7.0620146484375015 1.0739999999999998 L 6.670514648437502 0.4829999999999999 L 6.670514648437502 1.0739999999999998 L 6.376514648437501 1.0739999999999998 L 6.376514648437501 0.016499999999999737 L 6.670514648437502 0.016499999999999737 L 7.0620146484375015 0.6149999999999998 L 7.0620146484375015 0.016499999999999737 L 7.356014648437502 0.016499999999999737 L 7.356014648437502 1.0739999999999998 M 9.330005126953127 0.016499999999999737 L 9.070505126953126 1.0739999999999998 L 8.709005126953127 1.0739999999999998 L 8.563505126953126 0.4259999999999998 L 8.415005126953126 1.0739999999999998 L 8.053505126953127 1.0739999999999998 L 7.797005126953127 0.016499999999999737 L 8.115005126953127 0.016499999999999737 L 8.238005126953126 0.7394999999999998 L 8.404505126953127 0.016499999999999737 L 8.727005126953127 0.016499999999999737 L 8.889005126953126 0.7334999999999998 L 9.012005126953127 0.016499999999999737 L 9.330005126953127 0.016499999999999737 M 9.763488281250002 0.016499999999999737 L 9.763488281250002 1.0739999999999998 L 9.469488281250001 1.0739999999999998 L 9.469488281250001 0.016499999999999737 L 9.763488281250002 0.016499999999999737 M 10.042463378906252 0.9967499999999998 Q 9.923963378906253 0.9089999999999998 9.914963378906252 0.7454999999999998 L 10.228463378906252 0.7454999999999998 Q 10.232963378906252 0.8009999999999998 10.261463378906253 0.8264999999999998 Q 10.289963378906252 0.8519999999999999 10.334963378906252 0.8519999999999999 Q 10.375463378906252 0.8519999999999999 10.401713378906251 0.8317499999999999 Q 10.427963378906252 0.8114999999999999 10.427963378906252 0.7754999999999999 Q 10.427963378906252 0.7289999999999999 10.384463378906252 0.7034999999999998 Q 10.340963378906253 0.6779999999999998 10.243463378906252 0.6464999999999999 Q 10.139963378906252 0.6119999999999999 10.076213378906251 0.5797499999999998 Q 10.012463378906252 0.5474999999999999 9.965213378906252 0.48524999999999985 Q 9.917963378906252 0.4229999999999998 9.917963378906252 0.3224999999999998 Q 9.917963378906252 0.2204999999999998 9.968963378906253 0.14774999999999983 Q 10.019963378906253 0.07499999999999984 10.109963378906253 0.03749999999999987 Q 10.199963378906252 -2.220446049250313e-16 10.313963378906251 -2.220446049250313e-16 Q 10.498463378906251 -2.220446049250313e-16 10.608713378906252 0.08624999999999983 Q 10.718963378906253 0.17249999999999988 10.726463378906253 0.3284999999999998 L 10.406963378906251 0.3284999999999998 Q 10.405463378906251 0.28049999999999986 10.377713378906252 0.25649999999999984 Q 10.349963378906253 0.23249999999999982 10.306463378906253 0.23249999999999982 Q 10.273463378906252 0.23249999999999982 10.252463378906253 0.2519999999999998 Q 10.231463378906252 0.27149999999999985 10.231463378906252 0.3074999999999998 Q 10.231463378906252 0.3374999999999998 10.254713378906253 0.35924999999999985 Q 10.277963378906252 0.3809999999999998 10.312463378906251 0.3967499999999998 Q 10.346963378906253 0.41249999999999987 10.414463378906252 0.4364999999999998 Q 10.514963378906252 0.47099999999999986 10.580213378906253 0.5047499999999998 Q 10.645463378906252 0.5384999999999999 10.692713378906252 0.5992499999999998 Q 10.739963378906252 0.6599999999999998 10.739963378906252 0.7529999999999999 Q 10.739963378906252 0.8474999999999998 10.692713378906252 0.9224999999999999 Q 10.645463378906252 0.9974999999999998 10.556213378906252 1.041 Q 10.466963378906252 1.0844999999999998 10.345463378906253 1.0844999999999998 Q 10.160963378906253 1.0844999999999998 10.042463378906252 0.9967499999999998 M 11.185456054687503 0.2519999999999998 L 11.185456054687503 0.4244999999999999 L 11.522956054687503 0.4244999999999999 L 11.522956054687503 0.6479999999999999 L 11.185456054687503 0.6479999999999999 L 11.185456054687503 0.8384999999999998 L 11.567956054687503 0.8384999999999998 L 11.567956054687503 1.0739999999999998 L 10.891456054687502 1.0739999999999998 L 10.891456054687502 0.016499999999999737 L 11.567956054687503 0.016499999999999737 L 11.567956054687503 0.2519999999999998 L 11.185456054687503 0.2519999999999998" fill="#ffffff" fill-rule="nonzero"></path></g><g></g><g clip-path="url(&quot;#SvgjsClipPath1002&quot;)"><g clip-path="url(&quot;#SvgjsClipPath1000074ca2ad-bd8d-405e-8807-7dec69a70eec&quot;)"><path d=" M 13.165026784633811 -0.02612830166564985 L 13.165026784633811 0.3082246403497978 L 14.111819959149578 0.3082246403497978 L 14.111819959149578 -0.02612830166564985 Z M 13.43308348685822 0.1931497934352782 C 13.40430523665296 0.19313846787351832 13.380981860536451 0.16980590932546832 13.380981862765015 0.1410276568916434 C 13.380981862765015 0.12720944703470458 13.386471125257382 0.11395719507820681 13.396242075151083 0.10418624518450631 C 13.406013025044784 0.09441529529080579 13.41926527700128 0.08892603279843916 13.43308348685822 0.08892603279843916 C 13.446901696715159 0.08892603279843916 13.460153948671657 0.09441529529080579 13.469924898565358 0.10418624518450631 C 13.479695848459057 0.11395719507820681 13.485185110951425 0.12720944703470458 13.485185110951425 0.14102765689164415 C 13.485139861305182 0.16977386428494542 13.461829727653331 0.19305646628287537 13.43308348685822 0.1930677436335574 Z M 13.63841311566648 0.1931497934352782 C 13.609634865461219 0.19313846787351832 13.58631148934471 0.16980590932546832 13.586311491573275 0.1410276568916434 C 13.586322811756427 0.11225741474153511 13.609642873516355 0.08893735298159924 13.638413115666472 0.08892603279843916 C 13.667191368100303 0.08892603056987482 13.690523926648353 0.11224940668638209 13.690535252210115 0.1410276568916434 C 13.690489987748709 0.1697818703850109 13.667167364787122 0.19306777926086266 13.638413115666475 0.1930677436335574 Z M 13.84376325692517 0.1931497934352782 C 13.814985006719908 0.19313846787351832 13.7916616306034 0.16980590932546832 13.791661632831964 0.1410276568916434 C 13.791661632831964 0.12720944703470458 13.79715089532433 0.11395719507820681 13.806921845218032 0.10418624518450631 C 13.816692795111733 0.09441529529080579 13.829945047068229 0.08892603279843916 13.843763256925168 0.08892603279843916 C 13.857581466782111 0.08892603279843916 13.870833718738607 0.09441529529080579 13.880604668632309 0.10418624518450631 C 13.89037561852601 0.11395719507820681 13.895864881018376 0.12720944703470458 13.895864881018376 0.14102765689164415 C 13.895819631372133 0.16977386428494542 13.872509497720282 0.19305646628287537 13.843763256925172 0.1930677436335574 Z" fill="#e8a941" transform="matrix(1,0,0,1,0,0)" fill-rule="nonzero"></path></g><g clip-path="url(&quot;#SvgjsClipPath1000074ca2ad-bd8d-405e-8807-7dec69a70eec&quot;)"><path d=" M 13.165026784633811 0.3697619916409848 L 13.165026784633811 0.7041149336564329 L 14.111819959149578 0.7041149336564329 L 14.111819959149578 0.3697619916409848 Z M 13.43308348685822 0.5890400867419132 C 13.419265277001282 0.5890400867419132 13.406013025044784 0.5835508242495466 13.396242075151083 0.5737798743558464 C 13.386471125257383 0.5640089244621463 13.380981862765015 0.5507566725056482 13.380981862765015 0.5369384626487086 C 13.380981862765015 0.5231202527917694 13.386471125257382 0.5098680008352721 13.396242075151083 0.5000970509415712 C 13.406013025044784 0.490326101047871 13.41926527700128 0.48483683855550397 13.43308348685822 0.48483683855550397 C 13.446901696715159 0.48483683855550397 13.460153948671657 0.490326101047871 13.469924898565358 0.5000970509415712 C 13.479695848459057 0.5098680008352713 13.485185110951425 0.5231202527917694 13.485185110951425 0.5369384626487086 C 13.485201444272484 0.5507673314968587 13.479719393148475 0.5640353980481163 13.4699466723842 0.5738196613959734 C 13.460173951619922 0.58360392474383 13.446912365352032 0.58910163373887 13.43308348685822 0.5891016240932049 Z M 13.63841311566648 0.5890400867419132 C 13.624594905809541 0.5890400867419132 13.611342653853043 0.5835508242495466 13.601571703959342 0.5737798743558464 C 13.591800754065641 0.5640089244621463 13.586311491573275 0.5507566725056482 13.586311491573275 0.5369384626487086 C 13.586311491573275 0.5231202527917694 13.591800754065641 0.5098680008352721 13.601571703959342 0.5000970509415712 C 13.611342653853043 0.490326101047871 13.62459490580954 0.48483683855550397 13.63841311566648 0.48483683855550397 C 13.667191368100303 0.48483683632693964 13.690523926648353 0.5081602124434473 13.690535252210115 0.5369384626487083 C 13.690546138287289 0.5507692194151239 13.685059520821468 0.5640372306457232 13.675283543945486 0.5738209021119255 C 13.665507567069504 0.5836045735781273 13.652243876717058 0.589101628377377 13.638413115666475 0.5891016240932049 Z M 13.84376325692517 0.5890400867419132 C 13.82994504706823 0.5890400867419132 13.816692795111733 0.5835508242495466 13.806921845218032 0.5737798743558464 C 13.797150895324332 0.5640089244621463 13.791661632831964 0.5507566725056482 13.791661632831964 0.5369384626487086 C 13.791661632831964 0.5231202527917694 13.79715089532433 0.5098680008352721 13.806921845218032 0.5000970509415712 C 13.816692795111733 0.490326101047871 13.829945047068229 0.48483683855550397 13.843763256925168 0.48483683855550397 C 13.857581466782111 0.48483683855550397 13.870833718738607 0.490326101047871 13.880604668632309 0.5000970509415712 C 13.89037561852601 0.5098680008352713 13.895864881018376 0.5231202527917694 13.895864881018376 0.5369384626487086 C 13.895881214339434 0.5507673314968587 13.890399163215426 0.5640353980481163 13.88062644245115 0.5738196613959734 C 13.870853721686872 0.58360392474383 13.857592135418983 0.58910163373887 13.84376325692517 0.5891016240932049 Z" fill="#e8a941" transform="matrix(1,0,0,1,0,0)" fill-rule="nonzero"></path></g><g clip-path="url(&quot;#SvgjsClipPath1000074ca2ad-bd8d-405e-8807-7dec69a70eec&quot;)"><path d=" M 13.165026784633811 0.7658779219023538 L 13.165026784633811 1.100230863917802 L 14.111819959149578 1.100230863917802 L 14.111819959149578 0.7658779219023538 Z M 13.43308348685822 0.9851355045528521 C 13.419265277001282 0.9851355045528521 13.406013025044784 0.9796462420604853 13.396242075151083 0.9698752921667849 C 13.386471125257383 0.9601043422730848 13.380981862765015 0.946852090316587 13.380981862765015 0.9330338804596475 C 13.380981862765015 0.9192156706027079 13.386471125257382 0.9059634186462105 13.396242075151083 0.8961924687525097 C 13.406013025044784 0.8864215188588095 13.41926527700128 0.8809322563664429 13.43308348685822 0.8809322563664429 C 13.446901696715159 0.8809322563664429 13.460153948671657 0.8864215188588095 13.469924898565358 0.8961924687525097 C 13.479695848459057 0.9059634186462098 13.485185110951425 0.9192156706027079 13.485185110951425 0.9330338804596475 C 13.485185110951425 0.946852090316587 13.479695848459059 0.9601043422730844 13.469924898565358 0.9698752921667849 C 13.460153948671657 0.9796462420604853 13.446901696715159 0.9851355045528521 13.43308348685822 0.9851355045528521 Z M 13.63841311566648 0.9851355045528521 C 13.624594905809541 0.9851355045528521 13.611342653853043 0.9796462420604853 13.601571703959342 0.9698752921667849 C 13.591800754065641 0.9601043422730848 13.586311491573275 0.946852090316587 13.586311491573275 0.9330338804596475 C 13.586311491573275 0.9192156706027079 13.591800754065641 0.9059634186462105 13.601571703959342 0.8961924687525097 C 13.611342653853043 0.8864215188588095 13.62459490580954 0.8809322563664429 13.63841311566648 0.8809322563664429 C 13.667191368100303 0.8809322541378781 13.690523926648353 0.9042556302543858 13.690535252210115 0.9330338804596467 C 13.690523926648352 0.9618121306649118 13.667191368100301 0.9851355067814184 13.638413115666475 0.9851355045528524 Z M 13.84376325692517 0.9851355045528521 C 13.82994504706823 0.9851355045528521 13.816692795111733 0.9796462420604853 13.806921845218032 0.9698752921667849 C 13.797150895324332 0.9601043422730848 13.791661632831964 0.946852090316587 13.791661632831964 0.9330338804596475 C 13.791661632831964 0.9192156706027079 13.79715089532433 0.9059634186462105 13.806921845218032 0.8961924687525097 C 13.816692795111733 0.8864215188588095 13.829945047068229 0.8809322563664429 13.843763256925168 0.8809322563664429 C 13.857581466782111 0.8809322563664429 13.870833718738607 0.8864215188588095 13.880604668632309 0.8961924687525097 C 13.89037561852601 0.9059634186462098 13.895864881018376 0.9192156706027079 13.895864881018376 0.9330338804596475 C 13.895864881018376 0.946852090316587 13.890375618526011 0.9601043422730844 13.880604668632309 0.9698752921667849 C 13.870833718738607 0.9796462420604853 13.857581466782111 0.9851355045528521 13.843763256925172 0.9851355045528521 Z" fill="#e8a941" transform="matrix(1,0,0,1,0,0)" fill-rule="nonzero"></path></g><g clip-path="url(&quot;#SvgjsClipPath1000074ca2ad-bd8d-405e-8807-7dec69a70eec&quot;)"><path d=" M 13.103509945793054 -0.02452833053207955 C 13.090094803211576 -0.02563600285532064 13.07652239851013 -0.026196676500418164 13.062792731688718 -0.026210351467371384 C 12.896320968104996 -0.02627691323189136 12.740862052278672 0.056973299641522854 12.64864635749903 0.19557026258606605 C 12.633528220704106 0.19324232190683582 12.618261004352629 0.19201518597198383 12.602965130390544 0.19189853395902387 C 12.441475084618473 0.1918906603826769 12.306591269922892 0.3149561345105866 12.291832282262302 0.47577033546526926 C 12.14063620348629 0.5002707997505634 12.029506109281865 0.6307811206547523 12.029416503906251 0.7839493907315325 C 12.029411061125566 0.8668402255457784 12.062339714486907 0.9463370302302002 12.120956232867918 1.004945854640181 C 12.179572751248928 1.0635546790501622 12.259073877728504 1.0964728967373785 12.341964711114157 1.0964565730386093 L 13.103509945793054 1.0972565586053946 Z" fill="#e8a941" transform="matrix(1,0,0,1,0,0)" fill-rule="nonzero"></path></g></g></g><defs><clipPath id="SvgjsClipPath1002"><path d=" M 12.029416503906251 -0.026210351467371384 h 2.0824034552433286 v 1.1264207029347426 h -2.0824034552433286 Z"></path></clipPath><clipPath id="SvgjsClipPath1000074ca2ad-bd8d-405e-8807-7dec69a70eec"><path d=" M 12.029416503906251 -0.026210351467371384 L 14.11181995914958 -0.026210351467371384 L 14.11181995914958 1.1002103514673713 L 12.029416503906251 1.1002103514673713 Z"></path></clipPath></defs></svg>